<svg width="18" height="18" viewBox="0 0 18 18" fill="none" xmlns="http://www.w3.org/2000/svg">
<g opacity="0.5">
<path fill-rule="evenodd" clip-rule="evenodd" d="M3.5 1.09033C2.93168 1.09033 2.90186 1.68847 2.5 2.09033C2.09814 2.4922 1.5 2.52201 1.5 3.09033V14.0903C1.5 14.6587 2.09814 14.6885 2.5 15.0903C2.90186 15.4922 2.93168 16.0903 3.5 16.0903H14.5C15.0683 16.0903 15.0981 15.4922 15.5 15.0903C15.9019 14.6885 16.5 14.6587 16.5 14.0903V3.09033C16.5 2.52201 15.9019 2.4922 15.5 2.09033C15.0981 1.68847 15.0683 1.09033 14.5 1.09033L3.5 1.09033ZM4.5 6.09033C4.83957 6.09033 5.25989 5.33045 5.5 5.09033C5.74011 4.85022 6.5 4.4299 6.5 4.09033C6.5 3.75076 5.74011 3.33045 5.5 3.09033C5.25989 2.85022 4.83957 3.09033 4.5 3.09033C4.16043 3.09033 3.74011 2.85022 3.5 3.09033C3.25989 3.33045 3.5 3.75076 3.5 4.09033C3.5 4.4299 3.25989 4.85022 3.5 5.09033C3.74011 5.33045 4.16043 6.09033 4.5 6.09033ZM5.5 14.0903V7.09033H3.5V14.0903H5.5ZM7.5 7.09033H9.5V8.09033C9.81607 7.59533 10.2089 6.09033 11.5 6.09033C13.0407 6.09033 14.5 7.14783 14.5 9.09033C14.5 9.18355 14.5 10.0903 14.5 10.0903V14.0903H12.5V10.0903C12.5 9.57069 11.655 8.09033 10.5 8.09033C9.34393 8.09033 9.52679 9.25033 9.5 10.0903V14.0903H7.5V7.09033Z" fill="white"/>
</g>
</svg>
