<svg width="1080" height="1080" viewBox="0 0 1080 1080" fill="none" xmlns="http://www.w3.org/2000/svg">
<path d="M1068 605.816L1057.53 626.259H995.111V541.932H1018.96V605.816H1068Z" fill="url(#paint0_linear_156_152)"/>
<path d="M955.073 541.811C958.967 541.811 962.577 542.5 965.903 543.879C969.31 545.258 972.271 547.124 974.786 549.477C977.3 551.829 979.288 554.587 980.748 557.751C982.208 560.915 982.939 564.322 982.939 567.973V599.976C982.939 603.626 982.208 607.074 980.748 610.319C979.288 613.483 977.3 616.241 974.786 618.593C972.271 620.946 969.31 622.812 965.903 624.191C962.577 625.57 958.967 626.259 955.073 626.259H911.997C908.103 626.259 904.452 625.57 901.045 624.191C897.719 622.812 894.798 620.946 892.284 618.593C889.769 616.241 887.781 613.483 886.321 610.319C884.861 607.074 884.131 603.626 884.131 599.976V567.973C884.131 564.322 884.861 560.915 886.321 557.751C887.781 554.587 889.769 551.829 892.284 549.477C894.798 547.124 897.719 545.258 901.045 543.879C904.452 542.5 908.103 541.811 911.997 541.811H955.073ZM959.21 567.973C959.21 566.35 958.804 565.012 957.993 563.957C957.182 562.902 956.209 562.375 955.073 562.375H911.997C910.861 562.375 909.887 562.902 909.076 563.957C908.346 565.012 907.981 566.35 907.981 567.973V599.976C907.981 601.598 908.346 602.977 909.076 604.113C909.887 605.168 910.861 605.695 911.997 605.695H955.073C956.209 605.695 957.182 605.168 957.993 604.113C958.804 602.977 959.21 601.598 959.21 599.976V567.973Z" fill="url(#paint1_linear_156_152)"/>
<path d="M874.539 626.259H809.56C805.666 626.259 802.016 625.57 798.608 624.191C795.282 622.812 792.362 620.946 789.847 618.593C787.332 616.241 785.345 613.483 783.885 610.319C782.424 607.074 781.694 603.626 781.694 599.976V568.094C781.694 564.444 782.424 561.037 783.885 557.873C785.345 554.709 787.332 551.951 789.847 549.598C792.362 547.165 795.282 545.258 798.608 543.879C802.016 542.5 805.666 541.811 809.56 541.811H864.196L874.539 562.375H809.56C808.424 562.375 807.451 562.943 806.64 564.079C805.91 565.133 805.544 566.472 805.544 568.094V599.976C805.544 601.598 805.91 602.977 806.64 604.113C807.451 605.249 808.424 605.817 809.56 605.817H864.196L874.539 626.259Z" fill="url(#paint2_linear_156_152)"/>
<path d="M741.412 541.811C745.306 541.811 748.916 542.5 752.242 543.879C755.649 545.258 758.61 547.124 761.125 549.477C763.639 551.829 765.627 554.587 767.087 557.751C768.547 560.915 769.277 564.322 769.277 567.973V599.976C769.277 603.626 768.547 607.074 767.087 610.319C765.627 613.483 763.639 616.241 761.125 618.593C758.61 620.946 755.649 622.812 752.242 624.191C748.916 625.57 745.306 626.259 741.412 626.259H698.335C694.442 626.259 690.791 625.57 687.384 624.191C684.058 622.812 681.137 620.946 678.623 618.593C676.108 616.241 674.12 613.483 672.66 610.319C671.2 607.074 670.47 603.626 670.47 599.976V567.973C670.47 564.322 671.2 560.915 672.66 557.751C674.12 554.587 676.108 551.829 678.623 549.477C681.137 547.124 684.058 545.258 687.384 543.879C690.791 542.5 694.442 541.811 698.335 541.811H741.412ZM745.549 567.973C745.549 566.35 745.143 565.012 744.332 563.957C743.521 562.902 742.547 562.375 741.412 562.375H698.335C697.2 562.375 696.226 562.902 695.415 563.957C694.685 565.012 694.32 566.35 694.32 567.973V599.976C694.32 601.598 694.685 602.977 695.415 604.113C696.226 605.168 697.2 605.695 698.335 605.695H741.412C742.547 605.695 743.521 605.168 744.332 604.113C745.143 602.977 745.549 601.598 745.549 599.976V567.973Z" fill="url(#paint3_linear_156_152)"/>
<path d="M583.279 541.811H655.194L665.416 562.375H637.307V626.259H613.7V562.375H593.744L583.279 541.811Z" fill="url(#paint4_linear_156_152)"/>
<path d="M551.637 541.811C555.531 541.811 559.141 542.5 562.467 543.879C565.874 545.258 568.835 547.124 571.35 549.477C573.865 551.829 575.852 554.587 577.312 557.751C578.772 560.915 579.503 564.322 579.503 567.973V599.976C579.503 603.626 578.772 607.074 577.312 610.319C575.852 613.483 573.865 616.241 571.35 618.593C568.835 620.946 565.874 622.812 562.467 624.191C559.141 625.57 555.531 626.259 551.637 626.259H508.561C504.667 626.259 501.016 625.57 497.609 624.191C494.283 622.812 491.362 620.946 488.848 618.593C486.333 616.241 484.345 613.483 482.885 610.319C481.425 607.074 480.695 603.626 480.695 599.976V567.973C480.695 564.322 481.425 560.915 482.885 557.751C484.345 554.587 486.333 551.829 488.848 549.477C491.362 547.124 494.283 545.258 497.609 543.879C501.016 542.5 504.667 541.811 508.561 541.811H551.637ZM555.774 567.973C555.774 566.35 555.368 565.012 554.557 563.957C553.746 562.902 552.773 562.375 551.637 562.375H508.561C507.425 562.375 506.451 562.902 505.64 563.957C504.91 565.012 504.545 566.35 504.545 567.973V599.976C504.545 601.598 504.91 602.977 505.64 604.113C506.451 605.168 507.425 605.695 508.561 605.695H551.637C552.773 605.695 553.746 605.168 554.557 604.113C555.368 602.977 555.774 601.598 555.774 599.976V567.973Z" fill="url(#paint5_linear_156_152)"/>
<path d="M469.912 567.973C469.912 571.136 469.344 574.179 468.208 577.099C467.072 579.938 465.49 582.494 463.462 584.765C461.515 587.037 459.163 588.984 456.405 590.606C453.647 592.147 450.686 593.202 447.522 593.77L471.98 626.259H443.628L419.656 594.378H403.837C402.701 594.378 401.728 594.905 400.917 595.96C400.105 597.015 399.7 598.353 399.7 599.976V626.259H375.971V599.976C375.971 596.325 376.701 592.918 378.162 589.754C379.622 586.59 381.609 583.832 384.124 581.48C386.639 579.127 389.559 577.261 392.885 575.882C396.293 574.503 399.943 573.814 403.837 573.814H442.168C443.303 573.814 444.236 573.246 444.966 572.11C445.778 570.974 446.183 569.595 446.183 567.973C446.183 566.35 445.778 565.012 444.966 563.957C444.236 562.902 443.303 562.375 442.168 562.375H384.854L374.633 541.811H442.168C445.98 541.811 449.55 542.5 452.876 543.879C456.283 545.258 459.244 547.124 461.759 549.477C464.274 551.829 466.261 554.587 467.721 557.751C469.182 560.915 469.912 564.322 469.912 567.973Z" fill="url(#paint6_linear_156_152)"/>
<path d="M342.312 541.811C346.206 541.811 349.816 542.5 353.142 543.879C356.549 545.258 359.51 547.124 362.025 549.477C364.539 551.829 366.527 554.587 367.987 557.751C369.447 560.915 370.178 564.322 370.178 567.973C370.178 571.623 369.447 575.071 367.987 578.316C366.527 581.48 364.539 584.238 362.025 586.59C359.51 588.943 356.549 590.809 353.142 592.188C349.816 593.567 346.206 594.257 342.312 594.257H305.441C304.306 594.257 303.332 594.824 302.521 595.96C301.791 597.015 301.426 598.353 301.426 599.976V626.259H277.576V599.976C277.576 596.325 278.306 592.918 279.766 589.754C281.226 586.59 283.214 583.832 285.729 581.48C288.243 579.127 291.164 577.261 294.49 575.882C297.897 574.503 301.548 573.814 305.441 573.814H342.312C343.448 573.814 344.38 573.246 345.111 572.11C345.922 570.974 346.327 569.595 346.327 567.973C346.327 566.35 345.922 565.012 345.111 563.957C344.38 562.902 343.448 562.375 342.312 562.375H286.58L276.359 541.811H342.312Z" fill="url(#paint7_linear_156_152)"/>
<path d="M946.668 454.762C946.668 457.926 946.1 460.968 944.964 463.888C943.828 466.727 942.246 469.283 940.218 471.554C938.271 473.826 935.919 475.773 933.161 477.395C930.402 478.936 927.441 479.991 924.278 480.559L948.736 513.049H920.384L896.412 481.167H880.593C879.457 481.167 878.484 481.695 877.673 482.749C876.861 483.804 876.456 485.142 876.456 486.765V513.049H852.727V486.765C852.727 483.114 853.457 479.707 854.918 476.543C856.378 473.379 858.365 470.621 860.88 468.269C863.395 465.916 866.315 464.05 869.641 462.671C873.048 461.292 876.699 460.603 880.593 460.603H918.924C920.059 460.603 920.992 460.035 921.722 458.899C922.533 457.763 922.939 456.384 922.939 454.762C922.939 453.139 922.533 451.801 921.722 450.746C920.992 449.692 920.059 449.164 918.924 449.164H861.61L851.389 428.6H918.924C922.736 428.6 926.306 429.289 929.632 430.668C933.039 432.047 936 433.913 938.515 436.266C941.029 438.618 943.017 441.376 944.477 444.54C945.937 447.704 946.668 451.111 946.668 454.762Z" fill="url(#paint8_linear_156_152)"/>
<path d="M835.162 428.6L845.384 449.164H757.041L746.698 428.6H835.162ZM775.902 481.167C774.766 481.167 773.793 481.695 772.982 482.749C772.251 483.804 771.886 485.142 771.886 486.765V492.606H835.162L845.384 513.049H748.036V486.765C748.036 483.114 748.766 479.707 750.227 476.543C751.687 473.379 753.674 470.621 756.189 468.269C758.704 465.916 761.624 464.05 764.95 462.671C768.358 461.292 772.008 460.603 775.902 460.603H835.162L845.384 481.167H775.902Z" fill="url(#paint9_linear_156_152)"/>
<path d="M662.183 428.6H734.099L744.32 449.164H716.211V513.049H692.604V449.164H672.648L662.183 428.6Z" fill="url(#paint10_linear_156_152)"/>
<path d="M593.123 449.164C591.987 449.164 591.013 449.692 590.202 450.746C589.472 451.801 589.107 453.139 589.107 454.762C589.107 456.384 589.472 457.763 590.202 458.899C591.013 459.954 591.987 460.481 593.123 460.481H630.966C634.779 460.481 638.389 461.17 641.796 462.55C645.203 463.929 648.164 465.835 650.679 468.269C653.194 470.621 655.182 473.379 656.642 476.543C658.102 479.707 658.832 483.074 658.832 486.643C658.832 490.294 658.102 493.741 656.642 496.986C655.182 500.15 653.194 502.949 650.679 505.382C648.164 507.735 645.203 509.601 641.796 510.98C638.47 512.359 634.86 513.049 630.966 513.049H574.262L564.04 492.484H630.966C632.102 492.484 633.035 491.916 633.765 490.78C634.576 489.645 634.982 488.266 634.982 486.643C634.982 485.021 634.576 483.682 633.765 482.627C633.035 481.573 632.102 481.046 630.966 481.046H593.123C589.31 481.046 585.7 480.356 582.293 478.977C578.967 477.598 576.046 475.732 573.531 473.379C571.017 471.027 569.029 468.269 567.569 465.105C566.109 461.86 565.379 458.412 565.379 454.762C565.379 451.111 566.109 447.704 567.569 444.54C569.029 441.376 571.017 438.618 573.531 436.266C576.046 433.913 578.967 432.047 582.293 430.668C585.7 429.289 589.31 428.6 593.123 428.6H649.706L659.927 449.164H593.123Z" fill="url(#paint11_linear_156_152)"/>
<path d="M552.572 428.6V486.765C552.572 490.415 551.842 493.863 550.381 497.108C548.921 500.272 546.934 503.03 544.419 505.382C541.904 507.735 538.943 509.601 535.536 510.98C532.129 512.359 528.519 513.049 524.706 513.049H484.672C480.859 513.049 477.249 512.359 473.842 510.98C470.435 509.601 467.474 507.735 464.959 505.382C462.444 503.03 460.457 500.272 458.996 497.108C457.536 493.863 456.806 490.415 456.806 486.765V428.6H480.656V486.765C480.656 488.387 481.021 489.766 481.751 490.902C482.563 492.038 483.536 492.606 484.672 492.606H524.706C525.842 492.606 526.815 492.038 527.626 490.902C528.438 489.766 528.843 488.387 528.843 486.765V449.164H513.876L503.533 428.6H552.572Z" fill="url(#paint12_linear_156_152)"/>
<path d="M453.874 492.606L443.409 513.049H380.985V428.721H404.835V492.606H453.874Z" fill="url(#paint13_linear_156_152)"/>
<path d="M371.76 513.049H306.78C302.886 513.049 299.236 512.359 295.829 510.98C292.503 509.601 289.582 507.735 287.067 505.382C284.553 503.03 282.565 500.272 281.105 497.108C279.645 493.863 278.915 490.415 278.915 486.765V454.883C278.915 451.233 279.645 447.826 281.105 444.662C282.565 441.498 284.553 438.74 287.067 436.387C289.582 433.954 292.503 432.047 295.829 430.668C299.236 429.289 302.886 428.6 306.78 428.6H361.417L371.76 449.164H306.78C305.645 449.164 304.671 449.732 303.86 450.868C303.13 451.922 302.765 453.261 302.765 454.883V486.765C302.765 488.387 303.13 489.766 303.86 490.902C304.671 492.038 305.645 492.606 306.78 492.606H361.417L371.76 513.049Z" fill="url(#paint14_linear_156_152)"/>
<rect x="15.8335" y="423.58" width="208.42" height="208.42" rx="38.0768" fill="#2E0C61"/>
<g filter="url(#filter0_d_156_152)">
<mask id="mask0_156_152" style="mask-type:luminance" maskUnits="userSpaceOnUse" x="43" y="446" width="147" height="164">
<path d="M48.6596 539.672C48.6596 537.438 50.4705 535.626 52.7041 535.626C54.9378 535.626 56.7474 537.438 56.7474 539.672C56.7474 541.905 54.9365 543.718 52.7041 543.718C50.4718 543.718 48.6596 541.907 48.6596 539.672ZM48.6596 516.247C48.6596 514.012 50.4705 512.2 52.7041 512.2C54.9378 512.2 56.7474 514.012 56.7474 516.247C56.7474 518.482 54.9365 520.293 52.7041 520.293C50.4718 520.293 48.6596 518.481 48.6596 516.247ZM132.859 455.445C132.859 457.68 134.669 459.492 136.902 459.492C139.135 459.492 140.946 457.68 140.946 455.445C140.946 453.211 139.135 451.398 136.902 451.398C134.669 451.398 132.859 453.21 132.859 455.445ZM113.493 451.398C115.727 451.398 117.536 453.21 117.536 455.445C117.536 457.68 115.727 459.492 113.493 459.492C111.259 459.492 109.449 457.68 109.449 455.445C109.449 453.211 111.259 451.398 113.493 451.398ZM140.946 600.473C140.946 602.707 139.136 604.519 136.903 604.519C134.67 604.519 132.859 602.707 132.859 600.473C132.859 598.24 134.67 596.427 136.903 596.427C139.136 596.427 140.946 598.239 140.946 600.473ZM117.536 600.473C117.536 602.707 115.727 604.519 113.493 604.519C111.259 604.519 109.449 602.707 109.449 600.473C109.449 598.24 111.259 596.427 113.493 596.427C115.727 596.427 117.536 598.239 117.536 600.473ZM142.755 462.038V479.624C153.364 483.483 162.344 490.742 168.378 500.083H175.074C169.044 489.303 159.627 480.679 148.263 475.653V463.056C167.602 469.939 182.955 485.23 189.934 504.534H165.885C164.193 501.597 162.192 498.861 159.927 496.369L155.733 500.566L155.686 500.613L155.64 500.66L155.593 500.706L155.546 500.753L155.499 500.8L155.452 500.847L155.406 500.893L155.359 500.94L155.312 500.987L155.266 501.033L155.219 501.08L155.172 501.127L155.125 501.174L155.078 501.22L155.032 501.267L154.985 501.314L154.938 501.361L154.891 501.407L154.845 501.454L154.797 501.501L154.751 501.547L154.704 501.594L154.657 501.641L154.611 501.688L154.604 501.695L152.747 503.552L152.745 503.554C146.004 495.937 136.159 491.136 125.191 491.136C104.865 491.136 88.3886 507.624 88.3886 527.962C88.3886 548.301 104.864 564.788 125.191 564.788C136.159 564.788 146.004 559.987 152.746 552.37L152.747 552.373L154.746 554.374L154.749 554.377L154.796 554.423L154.843 554.47L154.89 554.517L154.937 554.564L154.984 554.611L155.03 554.658L155.077 554.704L155.124 554.751L155.171 554.798L155.218 554.845L155.264 554.891L155.311 554.939L155.358 554.985L155.404 555.032L155.451 555.079L155.498 555.126L155.545 555.172L155.592 555.219L155.639 555.266L155.685 555.313L155.732 555.36L159.925 559.556C162.19 557.064 164.191 554.328 165.882 551.391H189.932C182.954 570.696 167.6 585.986 148.262 592.869V580.271C159.624 575.245 169.04 566.621 175.068 555.842H168.372C162.338 565.183 153.361 572.441 142.753 576.301V593.887C144.569 595.502 145.714 597.858 145.714 600.48C145.714 605.351 141.767 609.299 136.9 609.299C132.033 609.299 128.087 605.35 128.087 600.48C128.087 597.857 129.232 595.502 131.048 593.887V574.571C140.891 573.347 149.786 569.07 156.763 562.721L152.569 558.524C145.31 565.042 135.716 569.008 125.195 569.008C114.673 569.008 105.079 565.042 97.8184 558.525L96.4858 559.86L94.9563 561.39L93.6256 562.721C100.603 569.072 109.5 573.347 119.344 574.572V593.887C121.16 595.503 122.304 597.858 122.304 600.481C122.304 605.352 118.358 609.3 113.491 609.3C108.624 609.3 104.678 605.351 104.678 600.481C104.678 597.858 105.823 595.503 107.639 593.887V576.301C105.748 575.613 103.91 574.815 102.13 573.919V592.866C82.6764 585.943 67.2562 570.513 60.3376 551.047H72.9286C78.0028 562.537 86.7506 572.039 97.6815 578.064V571.394C88.181 565.355 80.7974 556.281 76.893 545.535H59.2927C57.6787 547.352 55.3246 548.498 52.7041 548.498C47.8362 548.498 43.8901 544.548 43.8901 539.678C43.8901 534.807 47.8362 530.859 52.7041 530.859C55.3246 530.859 57.6787 532.005 59.2927 533.822H78.5953C78.6319 534.122 78.6729 534.42 78.7158 534.718H78.7436C80.1103 544.211 84.3138 552.786 90.4664 559.555L91.7958 558.224L93.3253 556.694L94.6579 555.36C88.1457 548.096 84.1819 538.494 84.1819 527.966C84.1819 517.438 88.145 507.837 94.6585 500.571L93.7386 499.651L91.9018 497.813L90.4664 496.377C84.3138 503.145 80.1096 511.72 78.743 521.213H78.7146C78.6717 521.511 78.6313 521.81 78.5947 522.109H59.2927C57.6787 523.927 55.3246 525.072 52.7041 525.072C47.8362 525.072 43.8901 521.123 43.8901 516.253C43.8901 511.383 47.8362 507.434 52.7041 507.434C55.3246 507.434 57.6787 508.579 59.2927 510.397H76.8961C80.8315 499.567 88.299 490.436 97.9074 484.398H97.684V477.868C86.7525 483.893 78.0041 493.394 72.9292 504.884H60.3389C67.2574 485.418 82.6777 469.987 102.132 463.064V482.012C103.912 481.116 105.75 480.319 107.641 479.631V462.038C105.825 460.422 104.681 458.067 104.681 455.445C104.681 450.574 108.627 446.626 113.494 446.626C118.36 446.626 122.307 450.574 122.307 455.445C122.307 458.067 121.162 460.422 119.346 462.038V481.354C118.695 481.434 118.048 481.529 117.406 481.636L117.384 481.64C117.073 481.693 116.765 481.748 116.457 481.805L116.398 481.816C116.105 481.872 115.814 481.931 115.523 481.991L115.416 482.014C115.148 482.071 114.881 482.13 114.615 482.191L114.424 482.236C114.174 482.295 113.926 482.356 113.678 482.418L113.46 482.474C113.236 482.532 113.012 482.592 112.789 482.652L112.472 482.741C112.278 482.796 112.085 482.851 111.892 482.909C111.758 482.948 111.623 482.989 111.49 483.029C111.342 483.075 111.194 483.121 111.046 483.168C110.874 483.222 110.702 483.277 110.53 483.334L110.149 483.461C109.962 483.524 109.777 483.588 109.592 483.654L109.292 483.76C109.089 483.834 108.888 483.908 108.686 483.984L108.511 484.05L108.468 484.067C108.205 484.167 107.944 484.27 107.683 484.375C102.469 486.475 97.72 489.485 93.6294 493.207L95.0649 494.643L96.9016 496.48L97.8216 497.401C105.081 490.883 114.675 486.918 125.197 486.918C135.719 486.918 145.312 490.884 152.572 497.402L156.766 493.204C152.687 489.492 147.952 486.49 142.755 484.391C142.352 484.228 141.945 484.069 141.536 483.918L141.36 483.853C141.184 483.788 141.008 483.725 140.832 483.663L140.655 483.6L140.3 483.478L140.122 483.418L140.067 483.4C139.932 483.355 139.797 483.31 139.661 483.267L139.352 483.168L139.036 483.069L138.695 482.965L138.38 482.871L137.984 482.758L137.752 482.693C137.607 482.652 137.462 482.613 137.316 482.574L137.113 482.52C136.956 482.479 136.798 482.438 136.641 482.399L136.446 482.351C136.267 482.307 136.089 482.263 135.91 482.222L135.81 482.199C135.619 482.155 135.425 482.111 135.233 482.069L135.13 482.046C134.943 482.006 134.755 481.967 134.568 481.929L134.458 481.906C134.259 481.866 134.06 481.828 133.86 481.791L133.785 481.777C133.576 481.737 133.367 481.701 133.156 481.665L133.144 481.663L133.134 481.66L133.105 481.656C132.891 481.62 132.676 481.585 132.46 481.551L132.43 481.547C132.21 481.513 131.99 481.48 131.769 481.449L131.726 481.443C131.502 481.412 131.277 481.382 131.051 481.354V462.038C129.235 460.422 128.09 458.067 128.09 455.445C128.09 450.574 132.036 446.626 136.903 446.626C141.77 446.626 145.717 450.574 145.717 455.445C145.717 458.067 144.573 460.422 142.756 462.038H142.755Z" fill="white"/>
</mask>
<g mask="url(#mask0_156_152)">
<path d="M189.934 446.626H43.8901V609.293H189.934V446.626Z" fill="url(#paint15_linear_156_152)"/>
</g>
</g>
<defs>
<filter id="filter0_d_156_152" x="43.8901" y="446.626" width="146.043" height="163.669" filterUnits="userSpaceOnUse" color-interpolation-filters="sRGB">
<feFlood flood-opacity="0" result="BackgroundImageFix"/>
<feColorMatrix in="SourceAlpha" type="matrix" values="0 0 0 0 0 0 0 0 0 0 0 0 0 0 0 0 0 0 127 0" result="hardAlpha"/>
<feOffset dy="1.00202"/>
<feComposite in2="hardAlpha" operator="out"/>
<feColorMatrix type="matrix" values="0 0 0 0 1 0 0 0 0 1 0 0 0 0 1 0 0 0 1 0"/>
<feBlend mode="normal" in2="BackgroundImageFix" result="effect1_dropShadow_156_152"/>
<feBlend mode="normal" in="SourceGraphic" in2="effect1_dropShadow_156_152" result="shape"/>
</filter>
<linearGradient id="paint0_linear_156_152" x1="437.583" y1="918.746" x2="1114.45" y2="503.765" gradientUnits="userSpaceOnUse">
<stop stop-color="#663399"/>
<stop offset="1" stop-color="#5316AE"/>
</linearGradient>
<linearGradient id="paint1_linear_156_152" x1="437.584" y1="918.747" x2="1114.45" y2="503.765" gradientUnits="userSpaceOnUse">
<stop stop-color="#663399"/>
<stop offset="1" stop-color="#5316AE"/>
</linearGradient>
<linearGradient id="paint2_linear_156_152" x1="437.583" y1="918.747" x2="1114.45" y2="503.765" gradientUnits="userSpaceOnUse">
<stop stop-color="#663399"/>
<stop offset="1" stop-color="#5316AE"/>
</linearGradient>
<linearGradient id="paint3_linear_156_152" x1="437.583" y1="918.747" x2="1114.45" y2="503.765" gradientUnits="userSpaceOnUse">
<stop stop-color="#663399"/>
<stop offset="1" stop-color="#5316AE"/>
</linearGradient>
<linearGradient id="paint4_linear_156_152" x1="437.583" y1="918.747" x2="1114.45" y2="503.765" gradientUnits="userSpaceOnUse">
<stop stop-color="#663399"/>
<stop offset="1" stop-color="#5316AE"/>
</linearGradient>
<linearGradient id="paint5_linear_156_152" x1="437.583" y1="918.747" x2="1114.45" y2="503.765" gradientUnits="userSpaceOnUse">
<stop stop-color="#663399"/>
<stop offset="1" stop-color="#5316AE"/>
</linearGradient>
<linearGradient id="paint6_linear_156_152" x1="437.583" y1="918.747" x2="1114.45" y2="503.765" gradientUnits="userSpaceOnUse">
<stop stop-color="#663399"/>
<stop offset="1" stop-color="#5316AE"/>
</linearGradient>
<linearGradient id="paint7_linear_156_152" x1="437.583" y1="918.747" x2="1114.45" y2="503.765" gradientUnits="userSpaceOnUse">
<stop stop-color="#663399"/>
<stop offset="1" stop-color="#5316AE"/>
</linearGradient>
<linearGradient id="paint8_linear_156_152" x1="437.583" y1="918.746" x2="1114.45" y2="503.765" gradientUnits="userSpaceOnUse">
<stop stop-color="#663399"/>
<stop offset="1" stop-color="#5316AE"/>
</linearGradient>
<linearGradient id="paint9_linear_156_152" x1="437.583" y1="918.746" x2="1114.45" y2="503.765" gradientUnits="userSpaceOnUse">
<stop stop-color="#663399"/>
<stop offset="1" stop-color="#5316AE"/>
</linearGradient>
<linearGradient id="paint10_linear_156_152" x1="437.582" y1="918.746" x2="1114.45" y2="503.765" gradientUnits="userSpaceOnUse">
<stop stop-color="#663399"/>
<stop offset="1" stop-color="#5316AE"/>
</linearGradient>
<linearGradient id="paint11_linear_156_152" x1="437.582" y1="918.746" x2="1114.45" y2="503.765" gradientUnits="userSpaceOnUse">
<stop stop-color="#663399"/>
<stop offset="1" stop-color="#5316AE"/>
</linearGradient>
<linearGradient id="paint12_linear_156_152" x1="437.583" y1="918.746" x2="1114.45" y2="503.765" gradientUnits="userSpaceOnUse">
<stop stop-color="#663399"/>
<stop offset="1" stop-color="#5316AE"/>
</linearGradient>
<linearGradient id="paint13_linear_156_152" x1="437.583" y1="918.747" x2="1114.45" y2="503.765" gradientUnits="userSpaceOnUse">
<stop stop-color="#663399"/>
<stop offset="1" stop-color="#5316AE"/>
</linearGradient>
<linearGradient id="paint14_linear_156_152" x1="437.583" y1="918.746" x2="1114.45" y2="503.765" gradientUnits="userSpaceOnUse">
<stop stop-color="#663399"/>
<stop offset="1" stop-color="#5316AE"/>
</linearGradient>
<linearGradient id="paint15_linear_156_152" x1="116.912" y1="584.821" x2="116.912" y2="436.177" gradientUnits="userSpaceOnUse">
<stop stop-color="#8741F3"/>
<stop offset="1" stop-color="#D0A0FF"/>
</linearGradient>
</defs>
</svg>
