<svg width="1080" height="1080" viewBox="0 0 1080 1080" fill="none" xmlns="http://www.w3.org/2000/svg">
<path d="M1068 605.816L1057.53 626.259H995.111V541.932H1018.96V605.816H1068Z" fill="black"/>
<path d="M955.073 541.811C958.967 541.811 962.577 542.5 965.903 543.879C969.31 545.258 972.271 547.124 974.786 549.477C977.3 551.829 979.288 554.587 980.748 557.751C982.208 560.915 982.939 564.322 982.939 567.973V599.976C982.939 603.626 982.208 607.074 980.748 610.319C979.288 613.483 977.3 616.241 974.786 618.593C972.271 620.946 969.31 622.812 965.903 624.191C962.577 625.57 958.967 626.259 955.073 626.259H911.997C908.103 626.259 904.452 625.57 901.045 624.191C897.719 622.812 894.798 620.946 892.284 618.593C889.769 616.241 887.781 613.483 886.321 610.319C884.861 607.074 884.131 603.626 884.131 599.976V567.973C884.131 564.322 884.861 560.915 886.321 557.751C887.781 554.587 889.769 551.829 892.284 549.477C894.798 547.124 897.719 545.258 901.045 543.879C904.452 542.5 908.103 541.811 911.997 541.811H955.073ZM959.21 567.973C959.21 566.35 958.804 565.012 957.993 563.957C957.182 562.902 956.209 562.375 955.073 562.375H911.997C910.861 562.375 909.887 562.902 909.076 563.957C908.346 565.012 907.981 566.35 907.981 567.973V599.976C907.981 601.598 908.346 602.977 909.076 604.113C909.887 605.168 910.861 605.695 911.997 605.695H955.073C956.209 605.695 957.182 605.168 957.993 604.113C958.804 602.977 959.21 601.598 959.21 599.976V567.973Z" fill="black"/>
<path d="M874.539 626.259H809.56C805.666 626.259 802.016 625.57 798.608 624.191C795.282 622.812 792.362 620.946 789.847 618.593C787.332 616.241 785.345 613.483 783.885 610.319C782.424 607.074 781.694 603.626 781.694 599.976V568.094C781.694 564.444 782.424 561.037 783.885 557.873C785.345 554.709 787.332 551.951 789.847 549.598C792.362 547.165 795.282 545.258 798.608 543.879C802.016 542.5 805.666 541.811 809.56 541.811H864.196L874.539 562.375H809.56C808.424 562.375 807.451 562.943 806.64 564.079C805.91 565.133 805.544 566.472 805.544 568.094V599.976C805.544 601.598 805.91 602.977 806.64 604.113C807.451 605.249 808.424 605.817 809.56 605.817H864.196L874.539 626.259Z" fill="black"/>
<path d="M741.412 541.811C745.306 541.811 748.916 542.5 752.242 543.879C755.649 545.258 758.61 547.124 761.125 549.477C763.639 551.829 765.627 554.587 767.087 557.751C768.547 560.915 769.277 564.322 769.277 567.973V599.976C769.277 603.626 768.547 607.074 767.087 610.319C765.627 613.483 763.639 616.241 761.125 618.593C758.61 620.946 755.649 622.812 752.242 624.191C748.916 625.57 745.306 626.259 741.412 626.259H698.335C694.442 626.259 690.791 625.57 687.384 624.191C684.058 622.812 681.137 620.946 678.623 618.593C676.108 616.241 674.12 613.483 672.66 610.319C671.2 607.074 670.47 603.626 670.47 599.976V567.973C670.47 564.322 671.2 560.915 672.66 557.751C674.12 554.587 676.108 551.829 678.623 549.477C681.137 547.124 684.058 545.258 687.384 543.879C690.791 542.5 694.442 541.811 698.335 541.811H741.412ZM745.549 567.973C745.549 566.35 745.143 565.012 744.332 563.957C743.521 562.902 742.547 562.375 741.412 562.375H698.335C697.2 562.375 696.226 562.902 695.415 563.957C694.685 565.012 694.32 566.35 694.32 567.973V599.976C694.32 601.598 694.685 602.977 695.415 604.113C696.226 605.168 697.2 605.695 698.335 605.695H741.412C742.547 605.695 743.521 605.168 744.332 604.113C745.143 602.977 745.549 601.598 745.549 599.976V567.973Z" fill="black"/>
<path d="M583.279 541.811H655.194L665.416 562.375H637.307V626.259H613.7V562.375H593.744L583.279 541.811Z" fill="black"/>
<path d="M551.637 541.811C555.531 541.811 559.141 542.5 562.467 543.879C565.874 545.258 568.835 547.124 571.35 549.477C573.865 551.829 575.852 554.587 577.312 557.751C578.772 560.915 579.503 564.322 579.503 567.973V599.976C579.503 603.626 578.772 607.074 577.312 610.319C575.852 613.483 573.865 616.241 571.35 618.593C568.835 620.946 565.874 622.812 562.467 624.191C559.141 625.57 555.531 626.259 551.637 626.259H508.561C504.667 626.259 501.016 625.57 497.609 624.191C494.283 622.812 491.362 620.946 488.848 618.593C486.333 616.241 484.345 613.483 482.885 610.319C481.425 607.074 480.695 603.626 480.695 599.976V567.973C480.695 564.322 481.425 560.915 482.885 557.751C484.345 554.587 486.333 551.829 488.848 549.477C491.362 547.124 494.283 545.258 497.609 543.879C501.016 542.5 504.667 541.811 508.561 541.811H551.637ZM555.774 567.973C555.774 566.35 555.368 565.012 554.557 563.957C553.746 562.902 552.773 562.375 551.637 562.375H508.561C507.425 562.375 506.451 562.902 505.64 563.957C504.91 565.012 504.545 566.35 504.545 567.973V599.976C504.545 601.598 504.91 602.977 505.64 604.113C506.451 605.168 507.425 605.695 508.561 605.695H551.637C552.773 605.695 553.746 605.168 554.557 604.113C555.368 602.977 555.774 601.598 555.774 599.976V567.973Z" fill="black"/>
<path d="M469.912 567.973C469.912 571.136 469.344 574.179 468.208 577.099C467.072 579.938 465.49 582.494 463.462 584.765C461.515 587.037 459.163 588.984 456.405 590.606C453.647 592.147 450.686 593.202 447.522 593.77L471.98 626.259H443.628L419.656 594.378H403.837C402.701 594.378 401.728 594.905 400.917 595.96C400.105 597.015 399.7 598.353 399.7 599.976V626.259H375.971V599.976C375.971 596.325 376.701 592.918 378.162 589.754C379.622 586.59 381.609 583.832 384.124 581.48C386.639 579.127 389.559 577.261 392.885 575.882C396.293 574.503 399.943 573.814 403.837 573.814H442.168C443.303 573.814 444.236 573.246 444.966 572.11C445.778 570.974 446.183 569.595 446.183 567.973C446.183 566.35 445.778 565.012 444.966 563.957C444.236 562.902 443.303 562.375 442.168 562.375H384.854L374.633 541.811H442.168C445.98 541.811 449.55 542.5 452.876 543.879C456.283 545.258 459.244 547.124 461.759 549.477C464.274 551.829 466.261 554.587 467.721 557.751C469.182 560.915 469.912 564.322 469.912 567.973Z" fill="black"/>
<path d="M342.312 541.811C346.206 541.811 349.816 542.5 353.142 543.879C356.549 545.258 359.51 547.124 362.025 549.477C364.539 551.829 366.527 554.587 367.987 557.751C369.447 560.915 370.178 564.322 370.178 567.973C370.178 571.623 369.447 575.071 367.987 578.316C366.527 581.48 364.539 584.238 362.025 586.59C359.51 588.943 356.549 590.809 353.142 592.188C349.816 593.567 346.206 594.257 342.312 594.257H305.441C304.306 594.257 303.332 594.824 302.521 595.96C301.791 597.015 301.426 598.353 301.426 599.976V626.259H277.576V599.976C277.576 596.325 278.306 592.918 279.766 589.754C281.226 586.59 283.214 583.832 285.729 581.48C288.243 579.127 291.164 577.261 294.49 575.882C297.897 574.503 301.548 573.814 305.441 573.814H342.312C343.448 573.814 344.38 573.246 345.111 572.11C345.922 570.974 346.327 569.595 346.327 567.973C346.327 566.35 345.922 565.012 345.111 563.957C344.38 562.902 343.448 562.375 342.312 562.375H286.58L276.359 541.811H342.312Z" fill="black"/>
<path d="M946.668 454.762C946.668 457.926 946.1 460.968 944.964 463.888C943.828 466.727 942.246 469.283 940.218 471.554C938.271 473.826 935.919 475.773 933.161 477.395C930.402 478.936 927.441 479.991 924.278 480.559L948.736 513.049H920.384L896.412 481.167H880.593C879.457 481.167 878.484 481.695 877.673 482.749C876.861 483.804 876.456 485.142 876.456 486.765V513.049H852.727V486.765C852.727 483.114 853.457 479.707 854.918 476.543C856.378 473.379 858.365 470.621 860.88 468.269C863.395 465.916 866.315 464.05 869.641 462.671C873.048 461.292 876.699 460.603 880.593 460.603H918.924C920.059 460.603 920.992 460.035 921.722 458.899C922.533 457.763 922.939 456.384 922.939 454.762C922.939 453.139 922.533 451.801 921.722 450.746C920.992 449.692 920.059 449.164 918.924 449.164H861.61L851.389 428.6H918.924C922.736 428.6 926.306 429.289 929.632 430.668C933.039 432.047 936 433.913 938.515 436.266C941.029 438.618 943.017 441.376 944.477 444.54C945.937 447.704 946.668 451.111 946.668 454.762Z" fill="black"/>
<path d="M835.162 428.6L845.384 449.164H757.041L746.698 428.6H835.162ZM775.902 481.167C774.766 481.167 773.793 481.695 772.982 482.749C772.251 483.804 771.886 485.142 771.886 486.765V492.606H835.162L845.384 513.049H748.036V486.765C748.036 483.114 748.766 479.707 750.227 476.543C751.687 473.379 753.674 470.621 756.189 468.269C758.704 465.916 761.624 464.05 764.95 462.671C768.358 461.292 772.008 460.603 775.902 460.603H835.162L845.384 481.167H775.902Z" fill="black"/>
<path d="M662.183 428.6H734.099L744.32 449.164H716.211V513.049H692.604V449.164H672.648L662.183 428.6Z" fill="black"/>
<path d="M593.123 449.164C591.987 449.164 591.013 449.692 590.202 450.746C589.472 451.801 589.107 453.139 589.107 454.762C589.107 456.384 589.472 457.763 590.202 458.899C591.013 459.954 591.987 460.481 593.123 460.481H630.966C634.779 460.481 638.389 461.17 641.796 462.55C645.203 463.929 648.164 465.835 650.679 468.269C653.194 470.621 655.182 473.379 656.642 476.543C658.102 479.707 658.832 483.074 658.832 486.643C658.832 490.294 658.102 493.741 656.642 496.986C655.182 500.15 653.194 502.949 650.679 505.382C648.164 507.735 645.203 509.601 641.796 510.98C638.47 512.359 634.86 513.049 630.966 513.049H574.262L564.04 492.484H630.966C632.102 492.484 633.035 491.916 633.765 490.78C634.576 489.645 634.982 488.266 634.982 486.643C634.982 485.021 634.576 483.682 633.765 482.627C633.035 481.573 632.102 481.046 630.966 481.046H593.123C589.31 481.046 585.7 480.356 582.293 478.977C578.967 477.598 576.046 475.732 573.531 473.379C571.017 471.027 569.029 468.269 567.569 465.105C566.109 461.86 565.379 458.412 565.379 454.762C565.379 451.111 566.109 447.704 567.569 444.54C569.029 441.376 571.017 438.618 573.531 436.266C576.046 433.913 578.967 432.047 582.293 430.668C585.7 429.289 589.31 428.6 593.123 428.6H649.706L659.927 449.164H593.123Z" fill="black"/>
<path d="M552.572 428.6V486.765C552.572 490.415 551.842 493.863 550.381 497.108C548.921 500.272 546.934 503.03 544.419 505.382C541.904 507.735 538.943 509.601 535.536 510.98C532.129 512.359 528.519 513.049 524.706 513.049H484.672C480.859 513.049 477.249 512.359 473.842 510.98C470.435 509.601 467.474 507.735 464.959 505.382C462.444 503.03 460.457 500.272 458.996 497.108C457.536 493.863 456.806 490.415 456.806 486.765V428.6H480.656V486.765C480.656 488.387 481.021 489.766 481.751 490.902C482.563 492.038 483.536 492.606 484.672 492.606H524.706C525.842 492.606 526.815 492.038 527.626 490.902C528.438 489.766 528.843 488.387 528.843 486.765V449.164H513.876L503.533 428.6H552.572Z" fill="black"/>
<path d="M453.874 492.605L443.409 513.048H380.985V428.721H404.835V492.605H453.874Z" fill="black"/>
<path d="M371.76 513.049H306.78C302.886 513.049 299.236 512.359 295.829 510.98C292.503 509.601 289.582 507.735 287.067 505.382C284.553 503.03 282.565 500.272 281.105 497.108C279.645 493.863 278.915 490.415 278.915 486.765V454.883C278.915 451.233 279.645 447.826 281.105 444.662C282.565 441.498 284.553 438.74 287.067 436.387C289.582 433.954 292.503 432.047 295.829 430.668C299.236 429.289 302.886 428.6 306.78 428.6H361.417L371.76 449.164H306.78C305.645 449.164 304.671 449.732 303.86 450.868C303.13 451.922 302.765 453.261 302.765 454.883V486.765C302.765 488.387 303.13 489.766 303.86 490.902C304.671 492.038 305.645 492.606 306.78 492.606H361.417L371.76 513.049Z" fill="black"/>
<rect x="15.833" y="423.58" width="208.42" height="208.42" rx="38.0768" fill="white"/>
<g filter="url(#filter0_d_156_289)">
<mask id="mask0_156_289" style="mask-type:luminance" maskUnits="userSpaceOnUse" x="43" y="446" width="147" height="164">
<path d="M48.6591 539.672C48.6591 537.438 50.47 535.626 52.7037 535.626C54.9373 535.626 56.7469 537.438 56.7469 539.672C56.7469 541.906 54.936 543.718 52.7037 543.718C50.4713 543.718 48.6591 541.907 48.6591 539.672ZM48.6591 516.247C48.6591 514.012 50.47 512.2 52.7037 512.2C54.9373 512.2 56.7469 514.012 56.7469 516.247C56.7469 518.482 54.936 520.294 52.7037 520.294C50.4713 520.294 48.6591 518.482 48.6591 516.247ZM132.858 455.445C132.858 457.68 134.668 459.492 136.901 459.492C139.134 459.492 140.945 457.68 140.945 455.445C140.945 453.211 139.134 451.398 136.901 451.398C134.668 451.398 132.858 453.21 132.858 455.445ZM113.492 451.398C115.726 451.398 117.536 453.21 117.536 455.445C117.536 457.68 115.726 459.492 113.492 459.492C111.259 459.492 109.449 457.68 109.449 455.445C109.449 453.211 111.259 451.398 113.492 451.398ZM140.946 600.474C140.946 602.707 139.135 604.52 136.902 604.52C134.669 604.52 132.859 602.707 132.859 600.474C132.859 598.24 134.669 596.427 136.902 596.427C139.135 596.427 140.946 598.239 140.946 600.474ZM117.536 600.474C117.536 602.707 115.726 604.52 113.492 604.52C111.259 604.52 109.449 602.707 109.449 600.474C109.449 598.24 111.259 596.427 113.492 596.427C115.726 596.427 117.536 598.239 117.536 600.474ZM142.754 462.038V479.624C153.364 483.484 162.343 490.742 168.378 500.083H175.074C169.044 489.303 159.626 480.68 148.263 475.654V463.057C167.601 469.94 182.955 485.23 189.933 504.534H165.884C164.192 501.597 162.191 498.861 159.927 496.37L155.733 500.566L155.686 500.613L155.639 500.66L155.593 500.707L155.546 500.753L155.499 500.8L155.452 500.847L155.405 500.894L155.359 500.94L155.312 500.987L155.265 501.034L155.218 501.08L155.172 501.127L155.124 501.174L155.078 501.221L155.031 501.267L154.984 501.314L154.938 501.361L154.891 501.407L154.844 501.454L154.797 501.501L154.75 501.548L154.704 501.594L154.657 501.641L154.61 501.688L154.603 501.695L152.747 503.552L152.744 503.554C146.004 495.938 136.158 491.136 125.191 491.136C104.865 491.136 88.3881 507.624 88.3881 527.963C88.3881 548.301 104.864 564.789 125.191 564.789C136.158 564.789 146.004 559.987 152.745 552.37L152.746 552.373L154.746 554.374L154.749 554.377L154.796 554.424L154.843 554.47L154.89 554.517L154.936 554.564L154.983 554.611L155.03 554.658L155.076 554.705L155.123 554.751L155.17 554.798L155.217 554.845L155.264 554.891L155.311 554.939L155.357 554.986L155.404 555.032L155.451 555.079L155.497 555.126L155.545 555.172L155.591 555.219L155.638 555.267L155.685 555.313L155.731 555.36L159.925 559.556C162.189 557.064 164.19 554.328 165.882 551.392H189.931C182.953 570.696 167.599 585.986 148.261 592.869V580.271C159.623 575.245 169.039 566.622 175.067 555.842H168.372C162.337 565.183 153.361 572.441 142.752 576.301V593.887C144.569 595.503 145.714 597.858 145.714 600.481C145.714 605.351 141.767 609.299 136.9 609.299C132.032 609.299 128.087 605.35 128.087 600.481C128.087 597.857 129.231 595.503 131.047 593.887V574.571C140.89 573.347 149.786 569.07 156.762 562.721L152.569 558.524C145.309 565.042 135.716 569.008 125.194 569.008C114.673 569.008 105.078 565.042 97.8179 558.525L96.4853 559.86L94.9559 561.39L93.6251 562.721C100.602 569.072 109.5 573.347 119.343 574.572V593.888C121.159 595.503 122.304 597.858 122.304 600.481C122.304 605.352 118.358 609.3 113.491 609.3C108.623 609.3 104.678 605.351 104.678 600.481C104.678 597.858 105.822 595.503 107.638 593.888V576.301C105.747 575.613 103.909 574.815 102.129 573.919V592.866C82.6759 585.943 67.2557 570.513 60.3371 551.048H72.9281C78.0024 562.538 86.7501 572.039 97.681 578.064V571.394C88.1805 565.356 80.7969 556.281 76.8925 545.535H59.2922C57.6782 547.353 55.3241 548.498 52.7037 548.498C47.8357 548.498 43.8896 544.549 43.8896 539.678C43.8896 534.808 47.8357 530.859 52.7037 530.859C55.3241 530.859 57.6782 532.005 59.2922 533.822H78.5948C78.6314 534.122 78.6724 534.42 78.7153 534.719H78.7431C80.1098 544.211 84.3133 552.786 90.4659 559.555L91.7953 558.225L93.3248 556.694L94.6574 555.361C88.1452 548.096 84.1814 538.494 84.1814 527.966C84.1814 517.439 88.1445 507.837 94.658 500.572L93.7381 499.651L91.9013 497.814L90.4659 496.377C84.3133 503.146 80.1092 511.721 78.7425 521.214H78.7141C78.6712 521.512 78.6308 521.81 78.5942 522.11H59.2922C57.6782 523.927 55.3241 525.072 52.7037 525.072C47.8357 525.072 43.8896 521.123 43.8896 516.253C43.8896 511.383 47.8357 507.434 52.7037 507.434C55.3241 507.434 57.6782 508.579 59.2922 510.397H76.8956C80.831 499.568 88.2985 490.436 97.9069 484.398H97.6835V477.869C86.752 483.893 78.0036 493.394 72.9287 504.885H60.3384C67.257 485.419 82.6772 469.987 102.132 463.064V482.012C103.911 481.116 105.75 480.32 107.641 479.631V462.038C105.825 460.423 104.68 458.067 104.68 455.445C104.68 450.575 108.626 446.626 113.493 446.626C118.36 446.626 122.306 450.575 122.306 455.445C122.306 458.067 121.162 460.423 119.346 462.038V481.354C118.694 481.435 118.047 481.529 117.405 481.637L117.383 481.64C117.073 481.693 116.764 481.748 116.456 481.805L116.397 481.817C116.105 481.872 115.814 481.931 115.522 481.992L115.415 482.014C115.147 482.072 114.881 482.13 114.614 482.192L114.424 482.237C114.174 482.295 113.925 482.356 113.678 482.418L113.459 482.475C113.235 482.533 113.012 482.592 112.788 482.653L112.472 482.741C112.278 482.796 112.085 482.851 111.891 482.909C111.757 482.949 111.623 482.989 111.49 483.03C111.341 483.075 111.193 483.121 111.046 483.168C110.873 483.222 110.701 483.278 110.529 483.334L110.148 483.461C109.962 483.525 109.776 483.588 109.591 483.654L109.291 483.761C109.089 483.834 108.887 483.908 108.686 483.984L108.51 484.051L108.467 484.067C108.204 484.167 107.943 484.27 107.682 484.375C102.469 486.475 97.7195 489.485 93.6289 493.207L95.0644 494.643L96.9011 496.481L97.8211 497.401C105.081 490.883 114.675 486.918 125.197 486.918C135.719 486.918 145.312 490.885 152.572 497.403L156.766 493.204C152.687 489.492 147.952 486.49 142.755 484.391C142.351 484.228 141.945 484.069 141.535 483.918L141.359 483.853C141.184 483.788 141.007 483.725 140.831 483.663L140.654 483.6L140.299 483.478L140.122 483.418L140.067 483.4C139.932 483.355 139.796 483.311 139.661 483.267L139.351 483.168L139.036 483.069L138.695 482.965L138.379 482.872L137.984 482.758L137.752 482.693C137.606 482.653 137.461 482.613 137.315 482.574L137.112 482.52C136.955 482.479 136.798 482.439 136.64 482.399L136.445 482.351C136.267 482.307 136.089 482.264 135.91 482.222L135.81 482.199C135.618 482.155 135.425 482.111 135.232 482.069L135.13 482.046C134.942 482.006 134.755 481.967 134.567 481.929L134.457 481.906C134.258 481.867 134.06 481.828 133.86 481.791L133.784 481.777C133.576 481.738 133.366 481.701 133.155 481.665L133.144 481.663L133.133 481.661L133.104 481.656C132.89 481.62 132.675 481.585 132.46 481.551L132.43 481.547C132.21 481.513 131.989 481.48 131.768 481.449L131.726 481.443C131.502 481.412 131.276 481.382 131.05 481.354V462.038C129.234 460.423 128.09 458.067 128.09 455.445C128.09 450.575 132.036 446.626 136.903 446.626C141.769 446.626 145.717 450.575 145.717 455.445C145.717 458.067 144.572 460.423 142.756 462.038H142.754Z" fill="white"/>
</mask>
<g mask="url(#mask0_156_289)">
<path d="M189.934 446.626H43.8896V609.293H189.934V446.626Z" fill="url(#paint0_linear_156_289)"/>
<path d="M189.934 446.626H43.8896V609.293H189.934V446.626Z" fill="black"/>
</g>
</g>
<defs>
<filter id="filter0_d_156_289" x="43.8896" y="446.626" width="146.043" height="163.669" filterUnits="userSpaceOnUse" color-interpolation-filters="sRGB">
<feFlood flood-opacity="0" result="BackgroundImageFix"/>
<feColorMatrix in="SourceAlpha" type="matrix" values="0 0 0 0 0 0 0 0 0 0 0 0 0 0 0 0 0 0 127 0" result="hardAlpha"/>
<feOffset dy="1.00202"/>
<feComposite in2="hardAlpha" operator="out"/>
<feColorMatrix type="matrix" values="0 0 0 0 1 0 0 0 0 1 0 0 0 0 1 0 0 0 1 0"/>
<feBlend mode="normal" in2="BackgroundImageFix" result="effect1_dropShadow_156_289"/>
<feBlend mode="normal" in="SourceGraphic" in2="effect1_dropShadow_156_289" result="shape"/>
</filter>
<linearGradient id="paint0_linear_156_289" x1="116.912" y1="584.821" x2="116.912" y2="436.177" gradientUnits="userSpaceOnUse">
<stop stop-color="#8741F3"/>
<stop offset="1" stop-color="#D0A0FF"/>
</linearGradient>
</defs>
</svg>
