<svg width="1080" height="1080" viewBox="0 0 1080 1080" fill="none" xmlns="http://www.w3.org/2000/svg">
<path d="M1045.73 624.429L1032.42 650.432H953.014V543.17H983.351V624.429H1045.73Z" fill="white"/>
<path d="M902.086 543.015C907.039 543.015 911.631 543.892 915.862 545.647C920.195 547.401 923.962 549.774 927.16 552.766C930.359 555.759 932.887 559.267 934.745 563.291C936.602 567.316 937.531 571.649 937.531 576.293V616.999C937.531 621.643 936.602 626.028 934.745 630.156C932.887 634.18 930.359 637.688 927.16 640.68C923.962 643.673 920.195 646.046 915.862 647.8C911.631 649.554 907.039 650.432 902.086 650.432H847.295C842.342 650.432 837.699 649.554 833.365 647.8C829.134 646.046 825.419 643.673 822.221 640.68C819.022 637.688 816.494 634.18 814.637 630.156C812.779 626.028 811.851 621.643 811.851 616.999V576.293C811.851 571.649 812.779 567.316 814.637 563.291C816.494 559.267 819.022 555.759 822.221 552.766C825.419 549.774 829.134 547.401 833.365 545.647C837.699 543.892 842.342 543.015 847.295 543.015H902.086ZM907.349 576.293C907.349 574.229 906.833 572.526 905.801 571.185C904.769 569.844 903.531 569.173 902.086 569.173H847.295C845.85 569.173 844.612 569.844 843.58 571.185C842.651 572.526 842.187 574.229 842.187 576.293V616.999C842.187 619.063 842.651 620.817 843.58 622.262C844.612 623.603 845.85 624.274 847.295 624.274H902.086C903.531 624.274 904.769 623.603 905.801 622.262C906.833 620.817 907.349 619.063 907.349 616.999V576.293Z" fill="white"/>
<path d="M799.651 650.432H716.999C712.046 650.432 707.403 649.554 703.069 647.8C698.839 646.046 695.124 643.673 691.925 640.68C688.727 637.688 686.199 634.18 684.341 630.156C682.484 626.028 681.555 621.643 681.555 616.999V576.447C681.555 571.804 682.484 567.47 684.341 563.446C686.199 559.422 688.727 555.914 691.925 552.921C695.124 549.826 698.839 547.401 703.069 545.647C707.403 543.892 712.046 543.015 716.999 543.015H786.495L799.651 569.173H716.999C715.555 569.173 714.317 569.895 713.285 571.34C712.356 572.681 711.892 574.384 711.892 576.447V616.999C711.892 619.063 712.356 620.817 713.285 622.262C714.317 623.706 715.555 624.429 716.999 624.429H786.495L799.651 650.432Z" fill="white"/>
<path d="M630.317 543.015C635.27 543.015 639.862 543.892 644.093 545.647C648.426 547.401 652.193 549.774 655.391 552.766C658.59 555.759 661.118 559.267 662.975 563.291C664.833 567.316 665.762 571.649 665.762 576.293V616.999C665.762 621.643 664.833 626.028 662.975 630.156C661.118 634.18 658.59 637.688 655.391 640.68C652.193 643.673 648.426 646.046 644.093 647.8C639.862 649.554 635.27 650.432 630.317 650.432H575.526C570.573 650.432 565.93 649.554 561.596 647.8C557.365 646.046 553.65 643.673 550.452 640.68C547.253 637.688 544.725 634.18 542.868 630.156C541.01 626.028 540.082 621.643 540.082 616.999V576.293C540.082 571.649 541.01 567.316 542.868 563.291C544.725 559.267 547.253 555.759 550.452 552.766C553.65 549.774 557.365 547.401 561.596 545.647C565.93 543.892 570.573 543.015 575.526 543.015H630.317ZM635.58 576.293C635.58 574.229 635.064 572.526 634.032 571.185C633 569.844 631.762 569.173 630.317 569.173H575.526C574.081 569.173 572.843 569.844 571.811 571.185C570.882 572.526 570.418 574.229 570.418 576.293V616.999C570.418 619.063 570.882 620.817 571.811 622.262C572.843 623.603 574.081 624.274 575.526 624.274H630.317C631.762 624.274 633 623.603 634.032 622.262C635.064 620.817 635.58 619.063 635.58 616.999V576.293Z" fill="white"/>
<path d="M429.178 543.015H520.652L533.654 569.173H497.9V650.432H467.873V569.173H442.489L429.178 543.015Z" fill="white"/>
<path d="M388.93 543.015C393.882 543.015 398.474 543.892 402.705 545.647C407.039 547.401 410.805 549.774 414.004 552.766C417.202 555.759 419.73 559.267 421.588 563.291C423.445 567.316 424.374 571.649 424.374 576.293V616.999C424.374 621.643 423.445 626.028 421.588 630.156C419.73 634.18 417.202 637.688 414.004 640.68C410.805 643.673 407.039 646.046 402.705 647.8C398.474 649.554 393.882 650.432 388.93 650.432H334.138C329.185 650.432 324.542 649.554 320.208 647.8C315.977 646.046 312.263 643.673 309.064 640.68C305.865 637.688 303.337 634.18 301.48 630.156C299.623 626.028 298.694 621.643 298.694 616.999V576.293C298.694 571.649 299.623 567.316 301.48 563.291C303.337 559.267 305.865 555.759 309.064 552.766C312.263 549.774 315.977 547.401 320.208 545.647C324.542 543.892 329.185 543.015 334.138 543.015H388.93ZM394.192 576.293C394.192 574.229 393.676 572.526 392.644 571.185C391.612 569.844 390.374 569.173 388.93 569.173H334.138C332.693 569.173 331.455 569.844 330.423 571.185C329.495 572.526 329.03 574.229 329.03 576.293V616.999C329.03 619.063 329.495 620.817 330.423 622.262C331.455 623.603 332.693 624.274 334.138 624.274H388.93C390.374 624.274 391.612 623.603 392.644 622.262C393.676 620.817 394.192 619.063 394.192 616.999V576.293Z" fill="white"/>
<path d="M284.979 576.293C284.979 580.317 284.257 584.186 282.812 587.901C281.368 591.513 279.355 594.763 276.776 597.652C274.299 600.541 271.307 603.018 267.799 605.081C264.29 607.042 260.524 608.383 256.5 609.106L287.61 650.432H251.547L221.056 609.88H200.934C199.49 609.88 198.252 610.55 197.22 611.892C196.188 613.233 195.672 614.936 195.672 616.999V650.432H165.49V616.999C165.49 612.356 166.419 608.022 168.276 603.998C170.134 599.974 172.662 596.465 175.86 593.473C179.059 590.481 182.774 588.107 187.004 586.353C191.338 584.599 195.981 583.722 200.934 583.722H249.69C251.134 583.722 252.321 583 253.249 581.555C254.281 580.111 254.797 578.356 254.797 576.293C254.797 574.229 254.281 572.526 253.249 571.185C252.321 569.844 251.134 569.173 249.69 569.173H176.789L163.788 543.015H249.69C254.539 543.015 259.079 543.892 263.31 545.647C267.644 547.401 271.41 549.774 274.609 552.766C277.808 555.759 280.336 559.267 282.193 563.291C284.05 567.316 284.979 571.649 284.979 576.293Z" fill="white"/>
<path d="M122.676 543.015C127.629 543.015 132.221 543.892 136.451 545.647C140.785 547.401 144.551 549.774 147.75 552.766C150.949 555.759 153.477 559.267 155.334 563.291C157.192 567.316 158.12 571.649 158.12 576.293C158.12 580.936 157.192 585.321 155.334 589.449C153.477 593.473 150.949 596.981 147.75 599.974C144.551 602.966 140.785 605.339 136.451 607.094C132.221 608.848 127.629 609.725 122.676 609.725H75.7781C74.3335 609.725 73.0953 610.447 72.0635 611.892C71.1348 613.233 70.6705 614.936 70.6705 616.999V650.432H40.3339V616.999C40.3339 612.356 41.2626 608.022 43.1199 603.998C44.9773 599.974 47.5053 596.465 50.7041 593.473C53.9028 590.481 57.6175 588.107 61.8481 586.353C66.1819 584.599 70.8252 583.722 75.7781 583.722H122.676C124.121 583.722 125.307 583 126.236 581.555C127.268 580.111 127.784 578.356 127.784 576.293C127.784 574.229 127.268 572.526 126.236 571.185C125.307 569.844 124.121 569.173 122.676 569.173H51.7875L38.7861 543.015H122.676Z" fill="white"/>
<path d="M891.396 432.293C891.396 436.317 890.673 440.186 889.229 443.901C887.784 447.513 885.772 450.763 883.192 453.652C880.716 456.541 877.723 459.018 874.215 461.081C870.707 463.042 866.941 464.383 862.916 465.106L894.027 506.432H857.963L827.472 465.88H807.351C805.906 465.88 804.668 466.55 803.636 467.892C802.604 469.233 802.088 470.936 802.088 472.999V506.432H771.907V472.999C771.907 468.356 772.835 464.022 774.693 459.998C776.55 455.974 779.078 452.465 782.277 449.473C785.476 446.481 789.19 444.107 793.421 442.353C797.755 440.599 802.398 439.722 807.351 439.722H856.106C857.551 439.722 858.737 439 859.666 437.555C860.698 436.111 861.214 434.356 861.214 432.293C861.214 430.229 860.698 428.526 859.666 427.185C858.737 425.844 857.551 425.173 856.106 425.173H783.206L770.204 399.015H856.106C860.956 399.015 865.496 399.892 869.727 401.647C874.06 403.401 877.827 405.774 881.025 408.766C884.224 411.759 886.752 415.267 888.609 419.291C890.467 423.316 891.396 427.649 891.396 432.293Z" fill="white"/>
<path d="M749.564 399.015L762.566 425.173H650.197L637.041 399.015H749.564ZM674.187 465.88C672.743 465.88 671.505 466.55 670.473 467.892C669.544 469.233 669.08 470.936 669.08 472.999V480.429H749.564L762.566 506.432H638.743V472.999C638.743 468.356 639.672 464.022 641.529 459.998C643.386 455.974 645.914 452.465 649.113 449.473C652.312 446.481 656.027 444.107 660.257 442.353C664.591 440.599 669.234 439.722 674.187 439.722H749.564L762.566 465.88H674.187Z" fill="white"/>
<path d="M529.542 399.015H621.016L634.017 425.173H598.264V506.432H568.237V425.173H542.853L529.542 399.015Z" fill="white"/>
<path d="M441.7 425.173C440.255 425.173 439.017 425.844 437.985 427.185C437.056 428.526 436.592 430.229 436.592 432.293C436.592 434.356 437.056 436.111 437.985 437.555C439.017 438.897 440.255 439.567 441.7 439.567H489.836C494.685 439.567 499.277 440.444 503.611 442.199C507.945 443.953 511.711 446.378 514.91 449.473C518.108 452.465 520.636 455.974 522.494 459.998C524.351 464.022 525.28 468.304 525.28 472.845C525.28 477.488 524.351 481.873 522.494 486.001C520.636 490.025 518.108 493.585 514.91 496.68C511.711 499.673 507.945 502.046 503.611 503.8C499.38 505.554 494.788 506.432 489.836 506.432H417.709L404.708 480.274H489.836C491.28 480.274 492.467 479.552 493.395 478.107C494.427 476.662 494.943 474.908 494.943 472.845C494.943 470.781 494.427 469.078 493.395 467.737C492.467 466.396 491.28 465.725 489.836 465.725H441.7C436.85 465.725 432.258 464.848 427.924 463.094C423.694 461.339 419.979 458.966 416.78 455.974C413.581 452.981 411.053 449.473 409.196 445.449C407.339 441.321 406.41 436.936 406.41 432.293C406.41 427.649 407.339 423.316 409.196 419.291C411.053 415.267 413.581 411.759 416.78 408.766C419.979 405.774 423.694 403.401 427.924 401.647C432.258 399.892 436.85 399.015 441.7 399.015H513.671L526.673 425.173H441.7Z" fill="white"/>
<path d="M390.12 399.015V472.999C390.12 477.643 389.191 482.028 387.334 486.156C385.476 490.18 382.948 493.688 379.749 496.68C376.551 499.673 372.784 502.046 368.451 503.8C364.117 505.554 359.525 506.432 354.675 506.432H303.753C298.904 506.432 294.312 505.554 289.978 503.8C285.644 502.046 281.878 499.673 278.679 496.68C275.48 493.688 272.952 490.18 271.095 486.156C269.238 482.028 268.309 477.643 268.309 472.999V399.015H298.646V472.999C298.646 475.063 299.11 476.817 300.039 478.262C301.07 479.706 302.309 480.429 303.753 480.429H354.675C356.12 480.429 357.358 479.706 358.39 478.262C359.422 476.817 359.938 475.063 359.938 472.999V425.173H340.9L327.744 399.015H390.12Z" fill="white"/>
<path d="M264.58 480.429L251.269 506.432H171.868V399.17H202.204V480.429H264.58Z" fill="white"/>
<path d="M160.132 506.432H77.4809C72.5279 506.432 67.8846 505.554 63.5508 503.8C59.3202 502.046 55.6055 499.673 52.4068 496.68C49.208 493.688 46.68 490.18 44.8226 486.156C42.9653 482.028 42.0366 477.643 42.0366 472.999V432.447C42.0366 427.804 42.9653 423.47 44.8226 419.446C46.68 415.422 49.208 411.914 52.4068 408.921C55.6055 405.826 59.3202 403.401 63.5508 401.647C67.8846 399.892 72.5279 399.015 77.4809 399.015H146.976L160.132 425.173H77.4809C76.0363 425.173 74.798 425.895 73.7662 427.34C72.8375 428.681 72.3732 430.384 72.3732 432.447V472.999C72.3732 475.063 72.8375 476.817 73.7662 478.262C74.798 479.706 76.0363 480.429 77.4809 480.429H146.976L160.132 506.432Z" fill="white"/>
</svg>
